<?xml version="1.0" encoding="utf-8"?>
<!-- Generator: Adobe Illustrator 22.0.1, SVG Export Plug-In . SVG Version: 6.00 Build 0)  -->
<svg version="1.1" id="Layer_1" xmlns="http://www.w3.org/2000/svg" xmlns:xlink="http://www.w3.org/1999/xlink" x="0px" y="0px"
	 viewBox="0 0 144 144" style="enable-background:new 0 0 144 144;" xml:space="preserve">
<style type="text/css">
	.st0{fill:#231F20;}
</style>
<title>Cog</title>
<path class="st0" d="M129.3,57.7l-6.7-16.1l6-14.9l-11.4-11.3l-14.9,6l-16.1-6.7L80,0H64l-6.3,14.7l-16.1,6.7l-14.9-6L15.4,26.8
	c2,5,4,9.9,6,14.9l-6.7,16.1L0,64v16l14.7,6.3l6.7,16.1l-6,14.9l11.3,11.3l14.9-6l16.1,6.7L64,144h16l6.3-14.7l16.1-6.7l14.9,6
	l11.3-11.3c-2-5-4-9.9-6-14.9l6.7-16.1L144,80V64L129.3,57.7z M72,114.7c-23.6,0-42.7-19.1-42.7-42.7c0-11.8,4.8-22.5,12.5-30.2
	S60.2,29.3,72,29.3c23.6,0,42.7,19.1,42.7,42.7S95.6,114.7,72,114.7z"/>
</svg>
